<?xml version="1.0" encoding="UTF-8" standalone="no"?>
<svg xmlns:svg="http://www.w3.org/2000/svg"
     xmlns="http://www.w3.org/2000/svg" version="1.1"
     width="360" height="185">
    <!-- Created with the Wikimedia parliament diagram creator (http://parliamentdiagram.toolforge.org/parliamentinputform.html) -->
    <g>
        <text x="175" y="175" 
              style="font-size:36px;font-weight:bold;text-align:center;text-anchor:middle;font-family:sans-serif">
            605
        </text>
        <g style="fill:#CE971B; stroke-width:0.00; stroke:#000000" 
           id="0_National-Solidarity-Coalition"> 
            <title>National Solidarity Coalition</title>            <circle cx="8.87" cy="176.92" r="3.08"/> 
            <circle cx="16.57" cy="176.92" r="3.08"/> 
            <circle cx="24.26" cy="176.92" r="3.08"/> 
            <circle cx="31.96" cy="176.92" r="3.08"/> 
            <circle cx="39.65" cy="176.92" r="3.08"/> 
            <circle cx="47.34" cy="176.92" r="3.08"/> 
            <circle cx="55.04" cy="176.92" r="3.08"/> 
            <circle cx="62.73" cy="176.92" r="3.08"/> 
            <circle cx="70.43" cy="176.92" r="3.08"/> 
            <circle cx="78.12" cy="176.92" r="3.08"/> 
            <circle cx="85.82" cy="176.92" r="3.08"/> 
            <circle cx="93.52" cy="176.92" r="3.08"/> 
            <circle cx="101.21" cy="176.92" r="3.08"/> 
            <circle cx="9.23" cy="168.49" r="3.08"/> 
            <circle cx="16.95" cy="168.48" r="3.08"/> 
            <circle cx="24.66" cy="168.46" r="3.08"/> 
            <circle cx="32.38" cy="168.43" r="3.08"/> 
            <circle cx="40.09" cy="168.41" r="3.08"/> 
            <circle cx="47.82" cy="168.38" r="3.08"/> 
            <circle cx="55.53" cy="168.54" r="3.08"/> 
            <circle cx="63.26" cy="168.51" r="3.08"/> 
            <circle cx="70.99" cy="168.49" r="3.08"/> 
            <circle cx="78.73" cy="168.46" r="3.08"/> 
            <circle cx="10.01" cy="160.09" r="3.08"/> 
            <circle cx="17.76" cy="160.06" r="3.08"/> 
            <circle cx="86.48" cy="168.43" r="3.08"/> 
            <circle cx="25.52" cy="160.02" r="3.08"/> 
            <circle cx="94.24" cy="168.39" r="3.08"/> 
            <circle cx="33.28" cy="159.98" r="3.08"/> 
            <circle cx="41.06" cy="159.94" r="3.08"/> 
            <circle cx="102.02" cy="168.34" r="3.08"/> 
            <circle cx="48.84" cy="159.89" r="3.08"/> 
            <circle cx="56.58" cy="160.20" r="3.08"/> 
            <circle cx="11.20" cy="151.74" r="3.08"/> 
            <circle cx="64.38" cy="160.16" r="3.08"/> 
            <circle cx="19.01" cy="151.70" r="3.08"/> 
            <circle cx="72.20" cy="160.12" r="3.08"/> 
            <circle cx="26.83" cy="151.65" r="3.08"/> 
            <circle cx="34.67" cy="151.60" r="3.08"/> 
            <circle cx="80.04" cy="160.08" r="3.08"/> 
            <circle cx="42.53" cy="151.54" r="3.08"/> 
            <circle cx="87.91" cy="160.02" r="3.08"/> 
            <circle cx="12.79" cy="143.46" r="3.08"/> 
            <circle cx="50.41" cy="151.48" r="3.08"/> 
            <circle cx="20.69" cy="143.41" r="3.08"/> 
            <circle cx="58.19" cy="151.95" r="3.08"/> 
            <circle cx="95.81" cy="159.96" r="3.08"/> 
            <circle cx="28.60" cy="143.36" r="3.08"/> 
            <circle cx="66.10" cy="151.92" r="3.08"/> 
            <circle cx="36.54" cy="143.31" r="3.08"/> 
            <circle cx="103.76" cy="159.89" r="3.08"/> 
            <circle cx="74.05" cy="151.88" r="3.08"/> 
            <circle cx="14.80" cy="135.26" r="3.08"/> 
            <circle cx="44.51" cy="143.25" r="3.08"/> 
            <circle cx="22.79" cy="135.22" r="3.08"/> 
            <circle cx="82.05" cy="151.83" r="3.08"/> 
            <circle cx="52.52" cy="143.19" r="3.08"/> 
            <circle cx="30.82" cy="135.18" r="3.08"/> 
            <circle cx="60.35" cy="143.84" r="3.08"/> 
            <circle cx="90.09" cy="151.79" r="3.08"/> 
            <circle cx="38.88" cy="135.14" r="3.08"/> 
            <circle cx="68.41" cy="143.81" r="3.08"/> 
            <circle cx="17.20" cy="127.18" r="3.08"/> 
            <circle cx="46.99" cy="135.09" r="3.08"/> 
            <circle cx="25.32" cy="127.15" r="3.08"/> 
            <circle cx="98.21" cy="151.74" r="3.08"/> 
            <circle cx="76.54" cy="143.79" r="3.08"/> 
            <circle cx="55.15" cy="135.05" r="3.08"/> 
            <circle cx="33.48" cy="127.13" r="3.08"/> 
            <circle cx="63.05" cy="135.88" r="3.08"/> 
            <circle cx="20.00" cy="119.22" r="3.08"/> 
            <circle cx="84.73" cy="143.78" r="3.08"/> 
            <circle cx="41.69" cy="127.11" r="3.08"/> 
            <circle cx="106.41" cy="151.69" r="3.08"/> 
            <circle cx="28.26" cy="119.22" r="3.08"/> 
            <circle cx="71.30" cy="135.90" r="3.08"/> 
            <circle cx="49.96" cy="127.10" r="3.08"/> 
            <circle cx="93.01" cy="143.78" r="3.08"/> 
            <circle cx="36.57" cy="119.24" r="3.08"/> 
            <circle cx="58.31" cy="127.10" r="3.08"/> 
            <circle cx="23.19" cy="111.41" r="3.08"/> 
            <circle cx="79.63" cy="135.93" r="3.08"/> 
            <circle cx="44.95" cy="119.26" r="3.08"/> 
            <circle cx="66.27" cy="128.12" r="3.08"/> 
            <circle cx="101.40" cy="143.79" r="3.08"/> 
            <circle cx="31.60" cy="111.46" r="3.08"/> 
            <circle cx="88.07" cy="135.98" r="3.08"/> 
            <circle cx="53.41" cy="119.30" r="3.08"/> 
            <circle cx="40.09" cy="111.53" r="3.08"/> 
            <circle cx="74.74" cy="128.21" r="3.08"/> 
            <circle cx="26.76" cy="103.77" r="3.08"/> 
            <circle cx="61.97" cy="119.37" r="3.08"/> 
            <circle cx="109.94" cy="143.82" r="3.08"/> 
            <circle cx="48.66" cy="111.62" r="3.08"/> 
            <circle cx="35.35" cy="103.88" r="3.08"/> 
            <circle cx="96.64" cy="136.07" r="3.08"/> 
            <circle cx="83.33" cy="128.33" r="3.08"/> 
            <circle cx="70.02" cy="120.60" r="3.08"/> 
            <circle cx="57.33" cy="111.73" r="3.08"/> 
            <circle cx="44.02" cy="104.02" r="3.08"/> 
            <circle cx="30.70" cy="96.31" r="3.08"/> 
            <circle cx="78.73" cy="120.79" r="3.08"/> 
            <circle cx="92.05" cy="128.49" r="3.08"/> 
            <circle cx="105.37" cy="136.19" r="3.08"/> 
            <circle cx="39.47" cy="96.50" r="3.08"/> 
            <circle cx="52.80" cy="104.19" r="3.08"/> 
            <circle cx="66.12" cy="111.89" r="3.08"/> 
            <circle cx="35.01" cy="89.05" r="3.08"/> 
            <circle cx="74.25" cy="113.35" r="3.08"/> 
            <circle cx="48.35" cy="96.73" r="3.08"/> 
            <circle cx="87.60" cy="121.03" r="3.08"/> 
            <circle cx="61.70" cy="104.41" r="3.08"/> 
            <circle cx="100.95" cy="128.71" r="3.08"/> 
            <circle cx="114.31" cy="136.39" r="3.08"/> 
            <circle cx="43.98" cy="89.34" r="3.08"/> 
            <circle cx="57.36" cy="97.02" r="3.08"/> 
            <circle cx="83.24" cy="113.67" r="3.08"/> 
            <circle cx="70.75" cy="104.69" r="3.08"/> 
            <circle cx="39.67" cy="82.02" r="3.08"/> 
            <circle cx="96.64" cy="121.35" r="3.08"/> 
            <circle cx="53.08" cy="89.70" r="3.08"/> 
            <circle cx="66.51" cy="97.37" r="3.08"/> 
            <circle cx="78.97" cy="106.39" r="3.08"/> 
            <circle cx="110.07" cy="129.03" r="3.08"/> 
            <circle cx="48.85" cy="82.43" r="3.08"/> 
            <circle cx="92.42" cy="114.09" r="3.08"/> 
            <circle cx="62.32" cy="90.12" r="3.08"/> 
            <circle cx="44.67" cy="75.22" r="3.08"/> 
            <circle cx="105.91" cy="121.78" r="3.08"/> 
            <circle cx="75.83" cy="97.81" r="3.08"/> 
            <circle cx="88.26" cy="106.90" r="3.08"/> 
            <circle cx="58.18" cy="82.93" r="3.08"/> 
            <circle cx="71.73" cy="90.63" r="3.08"/> 
            <circle cx="54.07" cy="75.78" r="3.08"/> 
            <circle cx="119.47" cy="129.48" r="3.08"/> 
            <circle cx="101.81" cy="114.62" r="3.08"/> 
            <circle cx="84.14" cy="99.77" r="3.08"/> 
            <circle cx="49.99" cy="68.68" r="3.08"/> 
            <circle cx="67.67" cy="83.51" r="3.08"/> 
            <circle cx="97.76" cy="107.53" r="3.08"/> 
            <circle cx="63.64" cy="76.44" r="3.08"/> 
            <circle cx="115.45" cy="122.36" r="3.08"/> 
            <circle cx="81.34" cy="91.26" r="3.08"/> 
            <circle cx="59.63" cy="69.41" r="3.08"/> 
            <circle cx="93.74" cy="100.50" r="3.08"/> 
            <circle cx="77.36" cy="84.23" r="3.08"/> 
            <circle cx="111.47" cy="115.32" r="3.08"/> 
            <circle cx="55.64" cy="62.41" r="3.08"/> 
            <circle cx="89.75" cy="93.51" r="3.08"/> 
            <circle cx="73.39" cy="77.23" r="3.08"/> 
            <circle cx="107.52" cy="108.34" r="3.08"/> 
            <circle cx="69.44" cy="70.27" r="3.08"/> 
            <circle cx="65.51" cy="63.33" r="3.08"/> 
            <circle cx="87.27" cy="85.09" r="3.08"/> 
            <circle cx="103.59" cy="101.41" r="3.08"/> 
            <circle cx="125.35" cy="123.17" r="3.08"/> 
            <circle cx="61.58" cy="56.42" r="3.08"/> 
            <circle cx="83.36" cy="78.17" r="3.08"/> 
            <circle cx="99.67" cy="94.51" r="3.08"/> 
            <circle cx="79.47" cy="71.28" r="3.08"/> 
            <circle cx="121.47" cy="116.26" r="3.08"/> 
            <circle cx="95.76" cy="87.65" r="3.08"/> 
            <circle cx="75.58" cy="64.41" r="3.08"/> 
            <circle cx="71.69" cy="57.57" r="3.08"/> 
            <circle cx="117.59" cy="109.40" r="3.08"/> 
            <circle cx="67.82" cy="50.74" r="3.08"/> 
            <circle cx="93.57" cy="79.31" r="3.08"/> 
            <circle cx="113.73" cy="102.56" r="3.08"/> 
            <circle cx="89.72" cy="72.49" r="3.08"/> 
            <circle cx="109.87" cy="95.76" r="3.08"/> 
            <circle cx="85.87" cy="65.69" r="3.08"/> 
            <circle cx="106.01" cy="88.97" r="3.08"/> 
            <circle cx="82.02" cy="58.91" r="3.08"/> 
            <circle cx="78.17" cy="52.13" r="3.08"/> 
            <circle cx="102.16" cy="82.20" r="3.08"/> 
            <circle cx="74.32" cy="45.37" r="3.08"/> 
            <circle cx="131.88" cy="117.54" r="3.08"/> 
            <circle cx="100.24" cy="73.95" r="3.08"/> 
            <circle cx="128.06" cy="110.79" r="3.08"/> 
            <circle cx="96.41" cy="67.21" r="3.08"/> 
            <circle cx="124.23" cy="104.05" r="3.08"/> 
            <circle cx="92.58" cy="60.48" r="3.08"/> 
            <circle cx="88.75" cy="53.76" r="3.08"/> 
            <circle cx="120.40" cy="97.32" r="3.08"/> 
            <circle cx="84.92" cy="47.04" r="3.08"/> 
            <circle cx="116.57" cy="90.60" r="3.08"/> 
            <circle cx="81.08" cy="40.32" r="3.08"/> 
            <circle cx="112.74" cy="83.89" r="3.08"/> 
            <circle cx="108.90" cy="77.19" r="3.08"/> 
            <circle cx="107.24" cy="69.03" r="3.08"/> 
            <circle cx="103.41" cy="62.35" r="3.08"/> 
            <circle cx="99.58" cy="55.66" r="3.08"/> 
            <circle cx="95.75" cy="48.98" r="3.08"/> 
            <circle cx="91.92" cy="42.30" r="3.08"/> 
            <circle cx="88.09" cy="35.62" r="3.08"/> 
            <circle cx="138.99" cy="112.66" r="3.08"/> 
            <circle cx="135.15" cy="105.99" r="3.08"/> 
            <circle cx="131.32" cy="99.32" r="3.08"/> 
            <circle cx="127.48" cy="92.65" r="3.08"/> 
            <circle cx="123.65" cy="85.98" r="3.08"/> 
            <circle cx="119.81" cy="79.31" r="3.08"/> 
            <circle cx="115.97" cy="72.65" r="3.08"/> 
            <circle cx="95.31" cy="31.27" r="3.08"/> 
            <circle cx="99.16" cy="37.93" r="3.08"/> 
            <circle cx="103.01" cy="44.59" r="3.08"/> 
            <circle cx="106.85" cy="51.25" r="3.08"/> 
            <circle cx="110.70" cy="57.91" r="3.08"/> 
            <circle cx="114.54" cy="64.58" r="3.08"/> 
            <circle cx="123.32" cy="68.59" r="3.08"/> 
            <circle cx="102.74" cy="27.27" r="3.08"/> 
            <circle cx="127.19" cy="75.25" r="3.08"/> 
            <circle cx="106.61" cy="33.94" r="3.08"/> 
            <circle cx="131.06" cy="81.92" r="3.08"/> 
            <circle cx="110.48" cy="40.60" r="3.08"/> 
            <circle cx="114.36" cy="47.27" r="3.08"/> 
            <circle cx="134.93" cy="88.58" r="3.08"/> 
            <circle cx="118.24" cy="53.93" r="3.08"/> 
            <circle cx="138.81" cy="95.25" r="3.08"/> 
            <circle cx="122.12" cy="60.60" r="3.08"/> 
            <circle cx="142.69" cy="101.92" r="3.08"/> 
            <circle cx="146.58" cy="108.59" r="3.08"/> 
            <circle cx="110.36" cy="23.65" r="3.08"/> 
            <circle cx="114.26" cy="30.34" r="3.08"/> 
            <circle cx="118.17" cy="37.03" r="3.08"/> 
            <circle cx="130.94" cy="65.03" r="3.08"/> 
            <circle cx="122.08" cy="43.72" r="3.08"/> 
            <circle cx="134.85" cy="71.73" r="3.08"/> 
            <circle cx="126.00" cy="50.42" r="3.08"/> 
            <circle cx="129.93" cy="57.12" r="3.08"/> 
            <circle cx="138.76" cy="78.44" r="3.08"/> 
            <circle cx="142.69" cy="85.15" r="3.08"/> 
            <circle cx="118.15" cy="20.41" r="3.08"/> 
            <circle cx="122.09" cy="27.14" r="3.08"/> 
            <circle cx="146.64" cy="91.87" r="3.08"/> 
            <circle cx="126.04" cy="33.88" r="3.08"/> 
            <circle cx="150.60" cy="98.61" r="3.08"/> 
            <circle cx="130.00" cy="40.62" r="3.08"/> 
            <circle cx="138.77" cy="62.00" r="3.08"/> 
            <circle cx="133.97" cy="47.38" r="3.08"/> 
            <circle cx="154.58" cy="105.36" r="3.08"/> 
            <circle cx="142.73" cy="68.77" r="3.08"/> 
            <circle cx="137.95" cy="54.15" r="3.08"/> 
            <circle cx="126.09" cy="17.56" r="3.08"/> 
            <circle cx="130.07" cy="24.35" r="3.08"/> 
            <circle cx="146.71" cy="75.56" r="3.08"/> 
            <circle cx="134.07" cy="31.16" r="3.08"/> 
            <circle cx="150.71" cy="82.38" r="3.08"/> 
            <circle cx="138.08" cy="37.98" r="3.08"/> 
            <circle cx="142.10" cy="44.83" r="3.08"/> 
        </g>
        <g style="fill:#7BC31A; stroke-width:0.00; stroke:#000000" 
           id="1_Imperialean-Green-Aliiance"> 
            <title>Imperialean Green Aliiance</title>            <circle cx="154.74" cy="89.22" r="3.08"/> 
            <circle cx="134.16" cy="15.10" r="3.08"/> 
            <circle cx="146.79" cy="59.49" r="3.08"/> 
            <circle cx="138.19" cy="21.98" r="3.08"/> 
            <circle cx="146.15" cy="51.70" r="3.08"/> 
            <circle cx="150.81" cy="66.38" r="3.08"/> 
            <circle cx="158.79" cy="96.10" r="3.08"/> 
            <circle cx="142.23" cy="28.88" r="3.08"/> 
            <circle cx="154.86" cy="73.31" r="3.08"/> 
            <circle cx="146.29" cy="35.81" r="3.08"/> 
            <circle cx="142.34" cy="13.04" r="3.08"/> 
            <circle cx="162.88" cy="103.03" r="3.08"/> 
            <circle cx="150.38" cy="42.78" r="3.08"/> 
            <circle cx="158.93" cy="80.28" r="3.08"/> 
            <circle cx="146.42" cy="20.03" r="3.08"/> 
            <circle cx="154.96" cy="57.53" r="3.08"/> 
            <circle cx="154.49" cy="49.78" r="3.08"/> 
            <circle cx="150.51" cy="27.05" r="3.08"/> 
            <circle cx="163.04" cy="87.31" r="3.08"/> 
            <circle cx="159.04" cy="64.58" r="3.08"/> 
            <circle cx="150.62" cy="11.39" r="3.08"/> 
            <circle cx="154.62" cy="34.11" r="3.08"/> 
            <circle cx="154.73" cy="18.50" r="3.08"/> 
            <circle cx="163.16" cy="71.69" r="3.08"/> 
            <circle cx="158.76" cy="41.23" r="3.08"/> 
            <circle cx="167.19" cy="94.41" r="3.08"/> 
            <circle cx="158.87" cy="25.67" r="3.08"/> 
            <circle cx="163.24" cy="56.13" r="3.08"/> 
            <circle cx="162.93" cy="48.41" r="3.08"/> 
            <circle cx="167.30" cy="78.87" r="3.08"/> 
            <circle cx="158.96" cy="10.14" r="3.08"/> 
            <circle cx="163.04" cy="32.90" r="3.08"/> 
            <circle cx="171.39" cy="101.63" r="3.08"/> 
            <circle cx="167.38" cy="63.37" r="3.08"/> 
            <circle cx="163.12" cy="17.41" r="3.08"/> 
            <circle cx="167.23" cy="40.20" r="3.08"/> 
            <circle cx="171.49" cy="86.15" r="3.08"/> 
            <circle cx="167.30" cy="24.75" r="3.08"/> 
            <circle cx="171.55" cy="70.71" r="3.08"/> 
            <circle cx="167.36" cy="9.31" r="3.08"/> 
            <circle cx="171.60" cy="55.28" r="3.08"/> 
            <circle cx="171.45" cy="47.58" r="3.08"/> 
            <circle cx="171.50" cy="32.17" r="3.08"/> 
            <circle cx="171.55" cy="16.76" r="3.08"/> 
            <circle cx="175.72" cy="93.57" r="3.08"/> 
            <circle cx="175.76" cy="78.17" r="3.08"/> 
            <circle cx="175.79" cy="62.77" r="3.08"/> 
            <circle cx="175.74" cy="39.68" r="3.08"/> 
            <circle cx="175.76" cy="24.29" r="3.08"/> 
            <circle cx="175.78" cy="8.90" r="3.08"/> 
            <circle cx="180.00" cy="16.54" r="3.08"/> 
            <circle cx="180.00" cy="31.92" r="3.08"/> 
            <circle cx="180.00" cy="47.31" r="3.08"/> 
            <circle cx="180.00" cy="55.00" r="3.08"/> 
            <circle cx="180.00" cy="70.38" r="3.08"/> 
            <circle cx="180.00" cy="85.77" r="3.08"/> 
            <circle cx="180.00" cy="101.15" r="3.08"/> 
            <circle cx="184.22" cy="8.90" r="3.08"/> 
            <circle cx="184.24" cy="24.29" r="3.08"/> 
            <circle cx="184.26" cy="39.68" r="3.08"/> 
            <circle cx="184.21" cy="62.77" r="3.08"/> 
            <circle cx="184.24" cy="78.17" r="3.08"/> 
            <circle cx="184.28" cy="93.57" r="3.08"/> 
            <circle cx="188.45" cy="16.76" r="3.08"/> 
            <circle cx="188.50" cy="32.17" r="3.08"/> 
            <circle cx="188.55" cy="47.58" r="3.08"/> 
            <circle cx="188.40" cy="55.28" r="3.08"/> 
            <circle cx="192.64" cy="9.31" r="3.08"/> 
            <circle cx="188.45" cy="70.71" r="3.08"/> 
            <circle cx="192.70" cy="24.75" r="3.08"/> 
            <circle cx="188.51" cy="86.15" r="3.08"/> 
            <circle cx="192.77" cy="40.20" r="3.08"/> 
            <circle cx="196.88" cy="17.41" r="3.08"/> 
            <circle cx="192.62" cy="63.37" r="3.08"/> 
            <circle cx="188.61" cy="101.63" r="3.08"/> 
            <circle cx="196.96" cy="32.90" r="3.08"/> 
            <circle cx="201.04" cy="10.14" r="3.08"/> 
            <circle cx="192.70" cy="78.87" r="3.08"/> 
            <circle cx="197.07" cy="48.41" r="3.08"/> 
            <circle cx="196.76" cy="56.13" r="3.08"/> 
            <circle cx="201.13" cy="25.67" r="3.08"/> 
            <circle cx="192.81" cy="94.41" r="3.08"/> 
            <circle cx="201.24" cy="41.23" r="3.08"/> 
            <circle cx="196.84" cy="71.69" r="3.08"/> 
            <circle cx="205.27" cy="18.50" r="3.08"/> 
            <circle cx="205.38" cy="34.11" r="3.08"/> 
            <circle cx="209.38" cy="11.39" r="3.08"/> 
            <circle cx="200.96" cy="64.58" r="3.08"/> 
            <circle cx="196.96" cy="87.31" r="3.08"/> 
            <circle cx="209.49" cy="27.05" r="3.08"/> 
            <circle cx="205.51" cy="49.78" r="3.08"/> 
            <circle cx="205.04" cy="57.53" r="3.08"/> 
            <circle cx="213.58" cy="20.03" r="3.08"/> 
            <circle cx="201.07" cy="80.28" r="3.08"/> 
            <circle cx="209.62" cy="42.78" r="3.08"/> 
            <circle cx="197.12" cy="103.03" r="3.08"/> 
            <circle cx="217.66" cy="13.04" r="3.08"/> 
            <circle cx="213.71" cy="35.81" r="3.08"/> 
            <circle cx="205.14" cy="73.31" r="3.08"/> 
            <circle cx="217.77" cy="28.88" r="3.08"/> 
            <circle cx="201.21" cy="96.10" r="3.08"/> 
            <circle cx="209.19" cy="66.38" r="3.08"/> 
            <circle cx="213.85" cy="51.70" r="3.08"/> 
            <circle cx="221.81" cy="21.98" r="3.08"/> 
            <circle cx="213.21" cy="59.49" r="3.08"/> 
            <circle cx="225.84" cy="15.10" r="3.08"/> 
            <circle cx="205.26" cy="89.22" r="3.08"/> 
            <circle cx="217.90" cy="44.83" r="3.08"/> 
            <circle cx="221.92" cy="37.98" r="3.08"/> 
            <circle cx="209.29" cy="82.38" r="3.08"/> 
            <circle cx="225.93" cy="31.16" r="3.08"/> 
            <circle cx="213.29" cy="75.56" r="3.08"/> 
            <circle cx="229.93" cy="24.35" r="3.08"/> 
            <circle cx="233.91" cy="17.56" r="3.08"/> 
            <circle cx="222.05" cy="54.15" r="3.08"/> 
            <circle cx="217.27" cy="68.77" r="3.08"/> 
            <circle cx="205.42" cy="105.36" r="3.08"/> 
            <circle cx="226.03" cy="47.38" r="3.08"/> 
            <circle cx="221.23" cy="62.00" r="3.08"/> 
            <circle cx="230.00" cy="40.62" r="3.08"/> 
            <circle cx="209.40" cy="98.61" r="3.08"/> 
            <circle cx="233.96" cy="33.88" r="3.08"/> 
            <circle cx="213.36" cy="91.87" r="3.08"/> 
            <circle cx="237.91" cy="27.14" r="3.08"/> 
            <circle cx="241.85" cy="20.41" r="3.08"/> 
            <circle cx="217.31" cy="85.15" r="3.08"/> 
            <circle cx="221.24" cy="78.44" r="3.08"/> 
            <circle cx="230.07" cy="57.12" r="3.08"/> 
            <circle cx="234.00" cy="50.42" r="3.08"/> 
            <circle cx="225.15" cy="71.73" r="3.08"/> 
            <circle cx="237.92" cy="43.72" r="3.08"/> 
            <circle cx="229.06" cy="65.03" r="3.08"/> 
            <circle cx="241.83" cy="37.03" r="3.08"/> 
            <circle cx="245.74" cy="30.34" r="3.08"/> 
            <circle cx="249.64" cy="23.65" r="3.08"/> 
            <circle cx="213.42" cy="108.59" r="3.08"/> 
            <circle cx="217.31" cy="101.92" r="3.08"/> 
            <circle cx="237.88" cy="60.60" r="3.08"/> 
            <circle cx="221.19" cy="95.25" r="3.08"/> 
            <circle cx="241.76" cy="53.93" r="3.08"/> 
            <circle cx="225.07" cy="88.58" r="3.08"/> 
            <circle cx="245.64" cy="47.27" r="3.08"/> 
            <circle cx="249.52" cy="40.60" r="3.08"/> 
            <circle cx="228.94" cy="81.92" r="3.08"/> 
            <circle cx="253.39" cy="33.94" r="3.08"/> 
            <circle cx="232.81" cy="75.25" r="3.08"/> 
            <circle cx="257.26" cy="27.27" r="3.08"/> 
            <circle cx="236.68" cy="68.59" r="3.08"/> 
            <circle cx="245.46" cy="64.58" r="3.08"/> 
            <circle cx="249.30" cy="57.91" r="3.08"/> 
            <circle cx="253.15" cy="51.25" r="3.08"/> 
            <circle cx="256.99" cy="44.59" r="3.08"/> 
            <circle cx="260.84" cy="37.93" r="3.08"/> 
            <circle cx="264.69" cy="31.27" r="3.08"/> 
            <circle cx="244.03" cy="72.65" r="3.08"/> 
            <circle cx="240.19" cy="79.31" r="3.08"/> 
            <circle cx="236.35" cy="85.98" r="3.08"/> 
            <circle cx="232.52" cy="92.65" r="3.08"/> 
            <circle cx="228.68" cy="99.32" r="3.08"/> 
            <circle cx="224.85" cy="105.99" r="3.08"/> 
            <circle cx="221.01" cy="112.66" r="3.08"/> 
            <circle cx="271.91" cy="35.62" r="3.08"/> 
            <circle cx="268.08" cy="42.30" r="3.08"/> 
            <circle cx="264.25" cy="48.98" r="3.08"/> 
            <circle cx="260.42" cy="55.66" r="3.08"/> 
            <circle cx="256.59" cy="62.35" r="3.08"/> 
            <circle cx="252.76" cy="69.03" r="3.08"/> 
            <circle cx="251.10" cy="77.19" r="3.08"/> 
            <circle cx="247.26" cy="83.89" r="3.08"/> 
            <circle cx="278.92" cy="40.32" r="3.08"/> 
            <circle cx="243.43" cy="90.60" r="3.08"/> 
            <circle cx="275.08" cy="47.04" r="3.08"/> 
            <circle cx="239.60" cy="97.32" r="3.08"/> 
            <circle cx="271.25" cy="53.76" r="3.08"/> 
            <circle cx="267.42" cy="60.48" r="3.08"/> 
            <circle cx="235.77" cy="104.05" r="3.08"/> 
            <circle cx="263.59" cy="67.21" r="3.08"/> 
            <circle cx="231.94" cy="110.79" r="3.08"/> 
        </g>
        <g style="fill:#2975A7; stroke-width:0.00; stroke:#000000" 
           id="2_Socialist-Progress-Movement"> 
            <title>Socialist Progress Movement</title>            <circle cx="259.76" cy="73.95" r="3.08"/> 
            <circle cx="228.12" cy="117.54" r="3.08"/> 
            <circle cx="285.68" cy="45.37" r="3.08"/> 
            <circle cx="257.84" cy="82.20" r="3.08"/> 
            <circle cx="281.83" cy="52.13" r="3.08"/> 
            <circle cx="277.98" cy="58.91" r="3.08"/> 
            <circle cx="253.99" cy="88.97" r="3.08"/> 
            <circle cx="274.13" cy="65.69" r="3.08"/> 
            <circle cx="250.13" cy="95.76" r="3.08"/> 
            <circle cx="270.28" cy="72.49" r="3.08"/> 
            <circle cx="246.27" cy="102.56" r="3.08"/> 
            <circle cx="266.43" cy="79.31" r="3.08"/> 
            <circle cx="292.18" cy="50.74" r="3.08"/> 
            <circle cx="242.41" cy="109.40" r="3.08"/> 
            <circle cx="288.31" cy="57.57" r="3.08"/> 
            <circle cx="284.42" cy="64.41" r="3.08"/> 
            <circle cx="264.24" cy="87.65" r="3.08"/> 
            <circle cx="238.53" cy="116.26" r="3.08"/> 
            <circle cx="280.53" cy="71.28" r="3.08"/> 
            <circle cx="260.33" cy="94.51" r="3.08"/> 
            <circle cx="276.64" cy="78.17" r="3.08"/> 
            <circle cx="298.42" cy="56.42" r="3.08"/> 
            <circle cx="234.65" cy="123.17" r="3.08"/> 
            <circle cx="256.41" cy="101.41" r="3.08"/> 
            <circle cx="272.73" cy="85.09" r="3.08"/> 
            <circle cx="294.49" cy="63.33" r="3.08"/> 
            <circle cx="290.56" cy="70.27" r="3.08"/> 
            <circle cx="252.48" cy="108.34" r="3.08"/> 
            <circle cx="286.61" cy="77.23" r="3.08"/> 
            <circle cx="270.25" cy="93.51" r="3.08"/> 
            <circle cx="304.36" cy="62.41" r="3.08"/> 
            <circle cx="248.53" cy="115.32" r="3.08"/> 
            <circle cx="282.64" cy="84.23" r="3.08"/> 
            <circle cx="266.26" cy="100.50" r="3.08"/> 
            <circle cx="300.37" cy="69.41" r="3.08"/> 
            <circle cx="278.66" cy="91.26" r="3.08"/> 
            <circle cx="244.55" cy="122.36" r="3.08"/> 
            <circle cx="296.36" cy="76.44" r="3.08"/> 
            <circle cx="262.24" cy="107.53" r="3.08"/> 
            <circle cx="292.33" cy="83.51" r="3.08"/> 
            <circle cx="310.01" cy="68.68" r="3.08"/> 
            <circle cx="275.86" cy="99.77" r="3.08"/> 
            <circle cx="258.19" cy="114.62" r="3.08"/> 
            <circle cx="240.53" cy="129.48" r="3.08"/> 
            <circle cx="305.93" cy="75.78" r="3.08"/> 
            <circle cx="288.27" cy="90.63" r="3.08"/> 
            <circle cx="301.82" cy="82.93" r="3.08"/> 
            <circle cx="271.74" cy="106.90" r="3.08"/> 
            <circle cx="284.17" cy="97.81" r="3.08"/> 
            <circle cx="254.09" cy="121.78" r="3.08"/> 
            <circle cx="315.33" cy="75.22" r="3.08"/> 
            <circle cx="297.68" cy="90.12" r="3.08"/> 
            <circle cx="267.58" cy="114.09" r="3.08"/> 
            <circle cx="311.15" cy="82.43" r="3.08"/> 
            <circle cx="249.93" cy="129.03" r="3.08"/> 
            <circle cx="281.03" cy="106.39" r="3.08"/> 
            <circle cx="293.49" cy="97.37" r="3.08"/> 
            <circle cx="306.92" cy="89.70" r="3.08"/> 
            <circle cx="263.36" cy="121.35" r="3.08"/> 
            <circle cx="320.33" cy="82.02" r="3.08"/> 
            <circle cx="289.25" cy="104.69" r="3.08"/> 
            <circle cx="276.76" cy="113.67" r="3.08"/> 
            <circle cx="302.64" cy="97.02" r="3.08"/> 
            <circle cx="316.02" cy="89.34" r="3.08"/> 
            <circle cx="245.69" cy="136.39" r="3.08"/> 
            <circle cx="259.05" cy="128.71" r="3.08"/> 
            <circle cx="298.30" cy="104.41" r="3.08"/> 
            <circle cx="272.40" cy="121.03" r="3.08"/> 
            <circle cx="311.65" cy="96.73" r="3.08"/> 
            <circle cx="285.75" cy="113.35" r="3.08"/> 
            <circle cx="324.99" cy="89.05" r="3.08"/> 
            <circle cx="293.88" cy="111.89" r="3.08"/> 
            <circle cx="307.20" cy="104.19" r="3.08"/> 
            <circle cx="320.53" cy="96.50" r="3.08"/> 
            <circle cx="254.63" cy="136.19" r="3.08"/> 
            <circle cx="267.95" cy="128.49" r="3.08"/> 
            <circle cx="281.27" cy="120.79" r="3.08"/> 
            <circle cx="329.30" cy="96.31" r="3.08"/> 
            <circle cx="315.98" cy="104.02" r="3.08"/> 
            <circle cx="302.67" cy="111.73" r="3.08"/> 
            <circle cx="289.98" cy="120.60" r="3.08"/> 
            <circle cx="276.67" cy="128.33" r="3.08"/> 
            <circle cx="263.36" cy="136.07" r="3.08"/> 
            <circle cx="324.65" cy="103.88" r="3.08"/> 
            <circle cx="311.34" cy="111.62" r="3.08"/> 
            <circle cx="250.06" cy="143.82" r="3.08"/> 
            <circle cx="298.03" cy="119.37" r="3.08"/> 
            <circle cx="333.24" cy="103.77" r="3.08"/> 
            <circle cx="285.26" cy="128.21" r="3.08"/> 
            <circle cx="319.91" cy="111.53" r="3.08"/> 
            <circle cx="306.59" cy="119.30" r="3.08"/> 
            <circle cx="271.93" cy="135.98" r="3.08"/> 
            <circle cx="328.40" cy="111.46" r="3.08"/> 
            <circle cx="258.60" cy="143.79" r="3.08"/> 
            <circle cx="293.73" cy="128.12" r="3.08"/> 
            <circle cx="315.05" cy="119.26" r="3.08"/> 
            <circle cx="280.37" cy="135.93" r="3.08"/> 
            <circle cx="336.81" cy="111.41" r="3.08"/> 
        </g>
        <g style="fill:#B42E2E; stroke-width:0.00; stroke:#000000" 
           id="3_National-Conservative-Alliance"> 
            <title>National Conservative Alliance</title>            <circle cx="301.69" cy="127.10" r="3.08"/> 
            <circle cx="323.43" cy="119.24" r="3.08"/> 
            <circle cx="266.99" cy="143.78" r="3.08"/> 
            <circle cx="310.04" cy="127.10" r="3.08"/> 
            <circle cx="288.70" cy="135.90" r="3.08"/> 
            <circle cx="331.74" cy="119.22" r="3.08"/> 
            <circle cx="253.59" cy="151.69" r="3.08"/> 
            <circle cx="318.31" cy="127.11" r="3.08"/> 
            <circle cx="275.27" cy="143.78" r="3.08"/> 
            <circle cx="340.00" cy="119.22" r="3.08"/> 
            <circle cx="296.95" cy="135.88" r="3.08"/> 
            <circle cx="326.52" cy="127.13" r="3.08"/> 
            <circle cx="304.85" cy="135.05" r="3.08"/> 
            <circle cx="283.46" cy="143.79" r="3.08"/> 
            <circle cx="261.79" cy="151.74" r="3.08"/> 
            <circle cx="334.68" cy="127.15" r="3.08"/> 
            <circle cx="313.01" cy="135.09" r="3.08"/> 
            <circle cx="342.80" cy="127.18" r="3.08"/> 
            <circle cx="291.59" cy="143.81" r="3.08"/> 
            <circle cx="321.12" cy="135.14" r="3.08"/> 
            <circle cx="269.91" cy="151.79" r="3.08"/> 
            <circle cx="299.65" cy="143.84" r="3.08"/> 
            <circle cx="329.18" cy="135.18" r="3.08"/> 
            <circle cx="307.48" cy="143.19" r="3.08"/> 
            <circle cx="277.95" cy="151.83" r="3.08"/> 
            <circle cx="337.21" cy="135.22" r="3.08"/> 
            <circle cx="315.49" cy="143.25" r="3.08"/> 
            <circle cx="345.20" cy="135.26" r="3.08"/> 
            <circle cx="285.95" cy="151.88" r="3.08"/> 
            <circle cx="256.24" cy="159.89" r="3.08"/> 
            <circle cx="323.46" cy="143.31" r="3.08"/> 
            <circle cx="293.90" cy="151.92" r="3.08"/> 
            <circle cx="331.40" cy="143.36" r="3.08"/> 
            <circle cx="264.19" cy="159.96" r="3.08"/> 
            <circle cx="301.81" cy="151.95" r="3.08"/> 
            <circle cx="339.31" cy="143.41" r="3.08"/> 
            <circle cx="309.59" cy="151.48" r="3.08"/> 
            <circle cx="347.21" cy="143.46" r="3.08"/> 
            <circle cx="272.09" cy="160.02" r="3.08"/> 
            <circle cx="317.47" cy="151.54" r="3.08"/> 
            <circle cx="279.96" cy="160.08" r="3.08"/> 
        </g>
        <g style="fill:#683088; stroke-width:0.00; stroke:#000000" 
           id="4_United-Front-for-Prosperity"> 
            <title>United Front for Prosperity</title>            <circle cx="325.33" cy="151.60" r="3.08"/> 
            <circle cx="333.17" cy="151.65" r="3.08"/> 
            <circle cx="287.80" cy="160.12" r="3.08"/> 
            <circle cx="340.99" cy="151.70" r="3.08"/> 
            <circle cx="295.62" cy="160.16" r="3.08"/> 
            <circle cx="348.80" cy="151.74" r="3.08"/> 
            <circle cx="303.42" cy="160.20" r="3.08"/> 
            <circle cx="311.16" cy="159.89" r="3.08"/> 
            <circle cx="257.98" cy="168.34" r="3.08"/> 
            <circle cx="318.94" cy="159.94" r="3.08"/> 
            <circle cx="326.72" cy="159.98" r="3.08"/> 
            <circle cx="265.76" cy="168.39" r="3.08"/> 
            <circle cx="334.48" cy="160.02" r="3.08"/> 
            <circle cx="273.52" cy="168.43" r="3.08"/> 
            <circle cx="342.24" cy="160.06" r="3.08"/> 
            <circle cx="349.99" cy="160.09" r="3.08"/> 
            <circle cx="281.27" cy="168.46" r="3.08"/> 
            <circle cx="289.01" cy="168.49" r="3.08"/> 
            <circle cx="296.74" cy="168.51" r="3.08"/> 
            <circle cx="304.47" cy="168.54" r="3.08"/> 
            <circle cx="312.18" cy="168.38" r="3.08"/> 
            <circle cx="319.91" cy="168.41" r="3.08"/> 
            <circle cx="327.62" cy="168.43" r="3.08"/> 
            <circle cx="335.34" cy="168.46" r="3.08"/> 
            <circle cx="343.05" cy="168.48" r="3.08"/> 
            <circle cx="350.77" cy="168.49" r="3.08"/> 
            <circle cx="258.79" cy="176.92" r="3.08"/> 
            <circle cx="266.48" cy="176.92" r="3.08"/> 
            <circle cx="274.18" cy="176.92" r="3.08"/> 
            <circle cx="281.88" cy="176.92" r="3.08"/> 
            <circle cx="289.57" cy="176.92" r="3.08"/> 
            <circle cx="297.27" cy="176.92" r="3.08"/> 
            <circle cx="304.96" cy="176.92" r="3.08"/> 
            <circle cx="312.66" cy="176.92" r="3.08"/> 
        </g>
        <g style="fill:#888888; stroke-width:0.00; stroke:#000000" 
           id="5_Independent"> 
            <title>Independent</title>            <circle cx="320.35" cy="176.92" r="3.08"/> 
            <circle cx="328.04" cy="176.92" r="3.08"/> 
            <circle cx="335.74" cy="176.92" r="3.08"/> 
            <circle cx="343.43" cy="176.92" r="3.08"/> 
            <circle cx="351.13" cy="176.92" r="3.08"/> 
        </g>
    </g>
</svg>
