<?xml version="1.0" encoding="UTF-8" standalone="no"?>
<svg xmlns:svg="http://www.w3.org/2000/svg"
xmlns="http://www.w3.org/2000/svg" version="1.1"
width="360" height="185">
<!-- Created with the Wikimedia parliament diagram creator (http://tools.wmflabs.org/parliamentdiagram/parliamentinputform.html) -->
<g>
<text x="175" y="175" style="font-size:36px;font-weight:bold;text-align:center;text-anchor:middle;font-family:sans-serif">539</text>
  <g style="fill:#FDB400; stroke:none" id="Party1">
    <circle cx="9.20" cy="176.67" r="3.33"/>
    <circle cx="17.53" cy="176.67" r="3.33"/>
    <circle cx="25.87" cy="176.67" r="3.33"/>
    <circle cx="34.20" cy="176.67" r="3.33"/>
    <circle cx="42.54" cy="176.67" r="3.33"/>
    <circle cx="50.88" cy="176.67" r="3.33"/>
    <circle cx="59.21" cy="176.67" r="3.33"/>
    <circle cx="67.55" cy="176.67" r="3.33"/>
    <circle cx="75.89" cy="176.67" r="3.33"/>
    <circle cx="84.22" cy="176.67" r="3.33"/>
    <circle cx="92.56" cy="176.67" r="3.33"/>
    <circle cx="100.90" cy="176.67" r="3.33"/>
    <circle cx="9.58" cy="168.13" r="3.33"/>
    <circle cx="17.94" cy="167.99" r="3.33"/>
    <circle cx="26.30" cy="167.99" r="3.33"/>
    <circle cx="34.66" cy="168.00" r="3.33"/>
    <circle cx="43.04" cy="167.82" r="3.33"/>
    <circle cx="51.41" cy="167.82" r="3.33"/>
    <circle cx="59.78" cy="167.81" r="3.33"/>
    <circle cx="68.16" cy="167.80" r="3.33"/>
    <circle cx="76.55" cy="167.79" r="3.33"/>
    <circle cx="10.39" cy="159.62" r="3.33"/>
    <circle cx="18.82" cy="159.35" r="3.33"/>
    <circle cx="84.95" cy="167.78" r="3.33"/>
    <circle cx="27.22" cy="159.36" r="3.33"/>
    <circle cx="93.36" cy="167.77" r="3.33"/>
    <circle cx="35.63" cy="159.37" r="3.33"/>
    <circle cx="44.11" cy="159.03" r="3.33"/>
    <circle cx="101.79" cy="167.75" r="3.33"/>
    <circle cx="52.55" cy="159.02" r="3.33"/>
    <circle cx="11.62" cy="151.16" r="3.33"/>
    <circle cx="61.00" cy="159.01" r="3.33"/>
    <circle cx="20.15" cy="150.77" r="3.33"/>
    <circle cx="69.48" cy="159.01" r="3.33"/>
    <circle cx="28.63" cy="150.79" r="3.33"/>
    <circle cx="37.12" cy="150.82" r="3.33"/>
    <circle cx="77.97" cy="159.00" r="3.33"/>
    <circle cx="45.74" cy="150.32" r="3.33"/>
    <circle cx="13.27" cy="142.77" r="3.33"/>
    <circle cx="86.50" cy="159.00" r="3.33"/>
    <circle cx="54.29" cy="150.33" r="3.33"/>
    <circle cx="21.94" cy="142.27" r="3.33"/>
    <circle cx="95.06" cy="158.99" r="3.33"/>
    <circle cx="30.51" cy="142.31" r="3.33"/>
    <circle cx="62.86" cy="150.33" r="3.33"/>
    <circle cx="39.11" cy="142.37" r="3.33"/>
    <circle cx="71.48" cy="150.35" r="3.33"/>
    <circle cx="103.67" cy="158.99" r="3.33"/>
    <circle cx="15.34" cy="134.48" r="3.33"/>
    <circle cx="47.93" cy="141.74" r="3.33"/>
    <circle cx="24.18" cy="133.88" r="3.33"/>
    <circle cx="80.14" cy="150.37" r="3.33"/>
    <circle cx="56.62" cy="141.77" r="3.33"/>
    <circle cx="32.87" cy="133.96" r="3.33"/>
    <circle cx="88.85" cy="150.40" r="3.33"/>
    <circle cx="17.83" cy="126.30" r="3.33"/>
    <circle cx="41.59" cy="134.05" r="3.33"/>
    <circle cx="65.36" cy="141.81" r="3.33"/>
    <circle cx="26.87" cy="125.62" r="3.33"/>
    <circle cx="97.64" cy="150.44" r="3.33"/>
    <circle cx="74.16" cy="141.87" r="3.33"/>
    <circle cx="50.67" cy="133.31" r="3.33"/>
    <circle cx="35.70" cy="125.75" r="3.33"/>
    <circle cx="59.53" cy="133.40" r="3.33"/>
    <circle cx="20.72" cy="118.26" r="3.33"/>
    <circle cx="83.03" cy="141.95" r="3.33"/>
    <circle cx="44.57" cy="125.90" r="3.33"/>
    <circle cx="106.53" cy="150.50" r="3.33"/>
    <circle cx="30.00" cy="117.51" r="3.33"/>
    <circle cx="68.47" cy="133.50" r="3.33"/>
    <circle cx="92.00" cy="142.05" r="3.33"/>
    <circle cx="53.94" cy="125.08" r="3.33"/>
    <circle cx="38.98" cy="117.71" r="3.33"/>
    <circle cx="24.00" cy="110.37" r="3.33"/>
    <circle cx="77.50" cy="133.63" r="3.33"/>
    <circle cx="63.02" cy="125.24" r="3.33"/>
    <circle cx="48.03" cy="117.94" r="3.33"/>
    <circle cx="101.09" cy="142.19" r="3.33"/>
    <circle cx="33.55" cy="109.59" r="3.33"/>
    <circle cx="86.64" cy="133.81" r="3.33"/>
    <circle cx="72.19" cy="125.44" r="3.33"/>
    <circle cx="27.68" cy="102.65" r="3.33"/>
    <circle cx="42.71" cy="109.87" r="3.33"/>
    <circle cx="57.74" cy="117.08" r="3.33"/>
    <circle cx="110.34" cy="142.39" r="3.33"/>
    <circle cx="51.96" cy="110.19" r="3.33"/>
    <circle cx="95.91" cy="134.04" r="3.33"/>
    <circle cx="37.52" cy="101.86" r="3.33"/>
    <circle cx="81.48" cy="125.69" r="3.33"/>
    <circle cx="67.05" cy="117.34" r="3.33"/>
    <circle cx="31.74" cy="95.13" r="3.33"/>
    <circle cx="46.88" cy="102.25" r="3.33"/>
    <circle cx="62.05" cy="109.33" r="3.33"/>
    <circle cx="76.48" cy="117.67" r="3.33"/>
    <circle cx="90.92" cy="126.00" r="3.33"/>
    <circle cx="105.36" cy="134.34" r="3.33"/>
    <circle cx="41.90" cy="94.36" r="3.33"/>
    <circle cx="56.34" cy="102.70" r="3.33"/>
    <circle cx="36.17" cy="87.82" r="3.33"/>
    <circle cx="71.61" cy="109.74" r="3.33"/>
    <circle cx="86.08" cy="118.08" r="3.33"/>
    <circle cx="51.47" cy="94.87" r="3.33"/>
    <circle cx="100.55" cy="126.42" r="3.33"/>
    <circle cx="66.84" cy="101.89" r="3.33"/>
    <circle cx="115.03" cy="134.76" r="3.33"/>
    <circle cx="46.67" cy="87.10" r="3.33"/>
    <circle cx="81.34" cy="110.24" r="3.33"/>
    <circle cx="61.16" cy="95.48" r="3.33"/>
    <circle cx="40.96" cy="80.74" r="3.33"/>
    <circle cx="95.86" cy="118.60" r="3.33"/>
    <circle cx="56.46" cy="87.77" r="3.33"/>
    <circle cx="76.69" cy="102.47" r="3.33"/>
    <circle cx="110.40" cy="126.96" r="3.33"/>
    <circle cx="91.26" cy="110.86" r="3.33"/>
    <circle cx="51.83" cy="80.11" r="3.33"/>
    <circle cx="72.11" cy="94.76" r="3.33"/>
    <circle cx="46.10" cy="73.91" r="3.33"/>
    <circle cx="66.40" cy="88.56" r="3.33"/>
    <circle cx="105.87" cy="119.26" r="3.33"/>
    <circle cx="86.73" cy="103.18" r="3.33"/>
    <circle cx="61.85" cy="80.96" r="3.33"/>
    <circle cx="82.25" cy="95.56" r="3.33"/>
    <circle cx="57.35" cy="73.40" r="3.33"/>
    <circle cx="101.41" cy="111.64" r="3.33"/>
    <circle cx="51.58" cy="67.34" r="3.33"/>
    <circle cx="120.56" cy="127.71" r="3.33"/>
    <circle cx="77.82" cy="87.99" r="3.33"/>
    <circle cx="72.04" cy="81.96" r="3.33"/>
    <circle cx="96.99" cy="104.06" r="3.33"/>
    <circle cx="116.18" cy="120.14" r="3.33"/>
    <circle cx="67.61" cy="74.47" r="3.33"/>
    <circle cx="92.62" cy="96.54" r="3.33"/>
    <circle cx="63.22" cy="67.00" r="3.33"/>
    <circle cx="57.37" cy="61.06" r="3.33"/>
    <circle cx="111.84" cy="112.64" r="3.33"/>
    <circle cx="88.28" cy="89.06" r="3.33"/>
    <circle cx="78.07" cy="75.71" r="3.33"/>
    <circle cx="83.96" cy="81.60" r="3.33"/>
    <circle cx="107.53" cy="105.17" r="3.33"/>
    <circle cx="73.73" cy="68.31" r="3.33"/>
    <circle cx="103.25" cy="97.75" r="3.33"/>
    <circle cx="63.48" cy="55.08" r="3.33"/>
    <circle cx="69.42" cy="60.92" r="3.33"/>
    <circle cx="126.85" cy="121.33" r="3.33"/>
    <circle cx="98.98" cy="90.35" r="3.33"/>
    <circle cx="94.73" cy="82.98" r="3.33"/>
    <circle cx="122.62" cy="113.94" r="3.33"/>
    <circle cx="84.45" cy="69.83" r="3.33"/>
    <circle cx="90.49" cy="75.62" r="3.33"/>
    <circle cx="80.19" cy="62.50" r="3.33"/>
    <circle cx="69.87" cy="49.40" r="3.33"/>
    <circle cx="118.40" cy="106.59" r="3.33"/>
    <circle cx="75.94" cy="55.19" r="3.33"/>
    <circle cx="114.18" cy="99.26" r="3.33"/>
    <circle cx="109.98" cy="91.95" r="3.33"/>
    <circle cx="105.78" cy="84.64" r="3.33"/>
    <circle cx="91.18" cy="64.34" r="3.33"/>
    <circle cx="101.59" cy="77.35" r="3.33"/>
    <circle cx="76.54" cy="44.06" r="3.33"/>
    <circle cx="86.97" cy="57.07" r="3.33"/>
    <circle cx="97.40" cy="70.07" r="3.33"/>
    <circle cx="82.76" cy="49.80" r="3.33"/>
    <circle cx="133.82" cy="115.70" r="3.33"/>
    <circle cx="129.65" cy="108.44" r="3.33"/>
    <circle cx="125.49" cy="101.18" r="3.33"/>
    <circle cx="83.47" cy="39.05" r="3.33"/>
    <circle cx="121.32" cy="93.93" r="3.33"/>
    <circle cx="98.22" cy="59.26" r="3.33"/>
    <circle cx="117.15" cy="86.69" r="3.33"/>
    <circle cx="94.04" cy="52.03" r="3.33"/>
    <circle cx="89.86" cy="44.80" r="3.33"/>
    <circle cx="112.98" cy="79.45" r="3.33"/>
    <circle cx="108.82" cy="72.22" r="3.33"/>
    <circle cx="104.65" cy="64.98" r="3.33"/>
    <circle cx="90.64" cy="34.40" r="3.33"/>
    <circle cx="105.54" cy="54.61" r="3.33"/>
    <circle cx="101.38" cy="47.39" r="3.33"/>
    <circle cx="97.21" cy="40.17" r="3.33"/>
    <circle cx="112.21" cy="60.37" r="3.33"/>
    <circle cx="116.38" cy="67.59" r="3.33"/>
    <circle cx="120.55" cy="74.80" r="3.33"/>
    <circle cx="124.71" cy="82.02" r="3.33"/>
    <circle cx="128.88" cy="89.24" r="3.33"/>
    <circle cx="133.05" cy="96.46" r="3.33"/>
    <circle cx="137.22" cy="103.67" r="3.33"/>
    <circle cx="141.38" cy="110.89" r="3.33"/>
    <circle cx="98.04" cy="30.11" r="3.33"/>
    <circle cx="104.80" cy="35.95" r="3.33"/>
    <circle cx="108.97" cy="43.17" r="3.33"/>
    <circle cx="113.14" cy="50.40" r="3.33"/>
    <circle cx="120.06" cy="56.25" r="3.33"/>
    <circle cx="105.64" cy="26.20" r="3.33"/>
    <circle cx="124.24" cy="63.49" r="3.33"/>
    <circle cx="128.43" cy="70.72" r="3.33"/>
    <circle cx="132.62" cy="77.96" r="3.33"/>
    <circle cx="112.60" cy="32.14" r="3.33"/>
    <circle cx="136.82" cy="85.21" r="3.33"/>
    <circle cx="116.78" cy="39.39" r="3.33"/>
    <circle cx="141.02" cy="92.45" r="3.33"/>
    <circle cx="120.97" cy="46.65" r="3.33"/>
    <circle cx="145.22" cy="99.71" r="3.33"/>
    <circle cx="113.42" cy="22.67" r="3.33"/>
    <circle cx="149.44" cy="106.97" r="3.33"/>
    <circle cx="128.15" cy="52.65" r="3.33"/>
    <circle cx="132.37" cy="59.94" r="3.33"/>
    <circle cx="120.60" cy="28.75" r="3.33"/>
    <circle cx="136.59" cy="67.23" r="3.33"/>
    <circle cx="124.80" cy="36.05" r="3.33"/>
    <circle cx="129.01" cy="43.37" r="3.33"/>
    <circle cx="140.83" cy="74.54" r="3.33"/>
    <circle cx="121.38" cy="19.54" r="3.33"/>
    <circle cx="145.07" cy="81.86" r="3.33"/>
    <circle cx="149.32" cy="89.21" r="3.33"/>
    <circle cx="136.46" cy="49.58" r="3.33"/>
    <circle cx="128.77" cy="25.79" r="3.33"/>
    <circle cx="132.99" cy="33.17" r="3.33"/>
    <circle cx="140.72" cy="56.95" r="3.33"/>
  </g>
  <g style="fill:#4ECE25; stroke:none" id="Party2">
    <circle cx="153.60" cy="96.58" r="3.33"/>
    <circle cx="129.47" cy="16.81" r="3.33"/>
    <circle cx="137.23" cy="40.58" r="3.33"/>
    <circle cx="144.99" cy="64.35" r="3.33"/>
    <circle cx="157.89" cy="103.98" r="3.33"/>
    <circle cx="149.28" cy="71.78" r="3.33"/>
    <circle cx="137.08" cy="23.27" r="3.33"/>
    <circle cx="144.95" cy="47.04" r="3.33"/>
    <circle cx="153.58" cy="79.24" r="3.33"/>
    <circle cx="141.34" cy="30.76" r="3.33"/>
    <circle cx="137.70" cy="14.49" r="3.33"/>
    <circle cx="149.26" cy="54.55" r="3.33"/>
    <circle cx="145.60" cy="38.28" r="3.33"/>
    <circle cx="157.90" cy="86.75" r="3.33"/>
    <circle cx="153.58" cy="62.09" r="3.33"/>
    <circle cx="145.52" cy="21.20" r="3.33"/>
    <circle cx="162.24" cy="94.32" r="3.33"/>
    <circle cx="146.03" cy="12.58" r="3.33"/>
    <circle cx="157.92" cy="69.69" r="3.33"/>
    <circle cx="149.80" cy="28.82" r="3.33"/>
    <circle cx="153.58" cy="45.06" r="3.33"/>
    <circle cx="154.09" cy="36.49" r="3.33"/>
    <circle cx="157.94" cy="52.73" r="3.33"/>
    <circle cx="162.28" cy="77.35" r="3.33"/>
    <circle cx="166.62" cy="101.97" r="3.33"/>
    <circle cx="154.05" cy="19.59" r="3.33"/>
    <circle cx="154.45" cy="11.09" r="3.33"/>
    <circle cx="162.30" cy="60.47" r="3.33"/>
    <circle cx="158.36" cy="27.36" r="3.33"/>
    <circle cx="166.66" cy="85.10" r="3.33"/>
    <circle cx="162.33" cy="43.64" r="3.33"/>
    <circle cx="162.68" cy="35.20" r="3.33"/>
    <circle cx="166.69" cy="68.29" r="3.33"/>
    <circle cx="162.66" cy="18.43" r="3.33"/>
    <circle cx="166.72" cy="51.52" r="3.33"/>
    <circle cx="171.07" cy="92.96" r="3.33"/>
    <circle cx="162.93" cy="10.02" r="3.33"/>
    <circle cx="171.11" cy="76.21" r="3.33"/>
    <circle cx="166.99" cy="26.38" r="3.33"/>
    <circle cx="171.13" cy="59.49" r="3.33"/>
    <circle cx="171.15" cy="42.79" r="3.33"/>
    <circle cx="171.32" cy="34.43" r="3.33"/>
    <circle cx="175.52" cy="100.96" r="3.33"/>
    <circle cx="171.32" cy="17.73" r="3.33"/>
    <circle cx="171.45" cy="9.38" r="3.33"/>
    <circle cx="175.54" cy="84.27" r="3.33"/>
    <circle cx="175.56" cy="67.59" r="3.33"/>
    <circle cx="175.57" cy="50.91" r="3.33"/>
    <circle cx="175.66" cy="25.89" r="3.33"/>
    <circle cx="180.00" cy="92.50" r="3.33"/>
    <circle cx="180.00" cy="9.17" r="3.33"/>
    <circle cx="180.00" cy="17.50" r="3.33"/>
    <circle cx="180.00" cy="34.17" r="3.33"/>
    <circle cx="180.00" cy="42.50" r="3.33"/>
    <circle cx="180.00" cy="59.17" r="3.33"/>
    <circle cx="180.00" cy="75.83" r="3.33"/>
    <circle cx="184.34" cy="25.89" r="3.33"/>
    <circle cx="184.43" cy="50.91" r="3.33"/>
    <circle cx="184.44" cy="67.59" r="3.33"/>
    <circle cx="184.46" cy="84.27" r="3.33"/>
    <circle cx="188.55" cy="9.38" r="3.33"/>
    <circle cx="188.68" cy="17.73" r="3.33"/>
    <circle cx="184.48" cy="100.96" r="3.33"/>
    <circle cx="188.68" cy="34.43" r="3.33"/>
    <circle cx="188.85" cy="42.79" r="3.33"/>
    <circle cx="188.87" cy="59.49" r="3.33"/>
    <circle cx="193.01" cy="26.38" r="3.33"/>
    <circle cx="188.89" cy="76.21" r="3.33"/>
    <circle cx="197.07" cy="10.02" r="3.33"/>
    <circle cx="188.93" cy="92.96" r="3.33"/>
    <circle cx="193.28" cy="51.52" r="3.33"/>
    <circle cx="197.34" cy="18.43" r="3.33"/>
    <circle cx="193.31" cy="68.29" r="3.33"/>
    <circle cx="197.32" cy="35.20" r="3.33"/>
    <circle cx="197.67" cy="43.64" r="3.33"/>
    <circle cx="193.34" cy="85.10" r="3.33"/>
    <circle cx="201.64" cy="27.36" r="3.33"/>
    <circle cx="197.70" cy="60.47" r="3.33"/>
    <circle cx="205.55" cy="11.09" r="3.33"/>
    <circle cx="205.95" cy="19.59" r="3.33"/>
    <circle cx="193.38" cy="101.97" r="3.33"/>
    <circle cx="197.72" cy="77.35" r="3.33"/>
    <circle cx="202.06" cy="52.73" r="3.33"/>
    <circle cx="205.91" cy="36.49" r="3.33"/>
    <circle cx="206.42" cy="45.06" r="3.33"/>
    <circle cx="210.20" cy="28.82" r="3.33"/>
    <circle cx="202.08" cy="69.69" r="3.33"/>
    <circle cx="213.97" cy="12.58" r="3.33"/>
    <circle cx="197.76" cy="94.32" r="3.33"/>
    <circle cx="214.48" cy="21.20" r="3.33"/>
    <circle cx="206.42" cy="62.09" r="3.33"/>
    <circle cx="202.10" cy="86.75" r="3.33"/>
    <circle cx="214.40" cy="38.28" r="3.33"/>
    <circle cx="210.74" cy="54.55" r="3.33"/>
    <circle cx="222.30" cy="14.49" r="3.33"/>
    <circle cx="218.66" cy="30.76" r="3.33"/>
    <circle cx="206.42" cy="79.24" r="3.33"/>
    <circle cx="215.05" cy="47.04" r="3.33"/>
    <circle cx="222.92" cy="23.27" r="3.33"/>
    <circle cx="210.72" cy="71.78" r="3.33"/>
    <circle cx="202.11" cy="103.98" r="3.33"/>
    <circle cx="215.01" cy="64.35" r="3.33"/>
    <circle cx="222.77" cy="40.58" r="3.33"/>
    <circle cx="230.53" cy="16.81" r="3.33"/>
    <circle cx="206.40" cy="96.58" r="3.33"/>
    <circle cx="219.28" cy="56.95" r="3.33"/>
    <circle cx="227.01" cy="33.17" r="3.33"/>
    <circle cx="231.23" cy="25.79" r="3.33"/>
    <circle cx="223.54" cy="49.58" r="3.33"/>
    <circle cx="210.68" cy="89.21" r="3.33"/>
    <circle cx="214.93" cy="81.86" r="3.33"/>
    <circle cx="238.62" cy="19.54" r="3.33"/>
    <circle cx="219.17" cy="74.54" r="3.33"/>
    <circle cx="230.99" cy="43.37" r="3.33"/>
    <circle cx="235.20" cy="36.05" r="3.33"/>
    <circle cx="223.41" cy="67.23" r="3.33"/>
    <circle cx="239.40" cy="28.75" r="3.33"/>
    <circle cx="227.63" cy="59.94" r="3.33"/>
    <circle cx="231.85" cy="52.65" r="3.33"/>
    <circle cx="210.56" cy="106.97" r="3.33"/>
    <circle cx="246.58" cy="22.67" r="3.33"/>
    <circle cx="214.78" cy="99.71" r="3.33"/>
    <circle cx="239.03" cy="46.65" r="3.33"/>
    <circle cx="218.98" cy="92.45" r="3.33"/>
    <circle cx="243.22" cy="39.39" r="3.33"/>
    <circle cx="223.18" cy="85.21" r="3.33"/>
    <circle cx="247.40" cy="32.14" r="3.33"/>
    <circle cx="227.38" cy="77.96" r="3.33"/>
    <circle cx="231.57" cy="70.72" r="3.33"/>
    <circle cx="235.76" cy="63.49" r="3.33"/>
    <circle cx="254.36" cy="26.20" r="3.33"/>
    <circle cx="239.94" cy="56.25" r="3.33"/>
    <circle cx="246.86" cy="50.40" r="3.33"/>
    <circle cx="251.03" cy="43.17" r="3.33"/>
    <circle cx="255.20" cy="35.95" r="3.33"/>
    <circle cx="261.96" cy="30.11" r="3.33"/>
    <circle cx="218.62" cy="110.89" r="3.33"/>
    <circle cx="222.78" cy="103.67" r="3.33"/>
    <circle cx="226.95" cy="96.46" r="3.33"/>
    <circle cx="231.12" cy="89.24" r="3.33"/>
    <circle cx="235.29" cy="82.02" r="3.33"/>
    <circle cx="239.45" cy="74.80" r="3.33"/>
    <circle cx="243.62" cy="67.59" r="3.33"/>
    <circle cx="247.79" cy="60.37" r="3.33"/>
    <circle cx="262.79" cy="40.17" r="3.33"/>
    <circle cx="258.62" cy="47.39" r="3.33"/>
    <circle cx="254.46" cy="54.61" r="3.33"/>
    <circle cx="269.36" cy="34.40" r="3.33"/>
    <circle cx="255.35" cy="64.98" r="3.33"/>
    <circle cx="251.18" cy="72.22" r="3.33"/>
    <circle cx="247.02" cy="79.45" r="3.33"/>
    <circle cx="270.14" cy="44.80" r="3.33"/>
    <circle cx="265.96" cy="52.03" r="3.33"/>
    <circle cx="242.85" cy="86.69" r="3.33"/>
    <circle cx="261.78" cy="59.26" r="3.33"/>
    <circle cx="238.68" cy="93.93" r="3.33"/>
    <circle cx="276.53" cy="39.05" r="3.33"/>
    <circle cx="234.51" cy="101.18" r="3.33"/>
  </g>
  <g style="fill:#377CD3; stroke:none" id="Party3">
    <circle cx="230.35" cy="108.44" r="3.33"/>
    <circle cx="226.18" cy="115.70" r="3.33"/>
    <circle cx="277.24" cy="49.80" r="3.33"/>
    <circle cx="262.60" cy="70.07" r="3.33"/>
    <circle cx="273.03" cy="57.07" r="3.33"/>
    <circle cx="283.46" cy="44.06" r="3.33"/>
    <circle cx="258.41" cy="77.35" r="3.33"/>
    <circle cx="268.82" cy="64.34" r="3.33"/>
    <circle cx="254.22" cy="84.64" r="3.33"/>
    <circle cx="250.02" cy="91.95" r="3.33"/>
    <circle cx="245.82" cy="99.26" r="3.33"/>
    <circle cx="284.06" cy="55.19" r="3.33"/>
    <circle cx="241.60" cy="106.59" r="3.33"/>
    <circle cx="290.13" cy="49.40" r="3.33"/>
    <circle cx="279.81" cy="62.50" r="3.33"/>
    <circle cx="269.51" cy="75.62" r="3.33"/>
    <circle cx="275.55" cy="69.83" r="3.33"/>
    <circle cx="237.38" cy="113.94" r="3.33"/>
    <circle cx="265.27" cy="82.98" r="3.33"/>
    <circle cx="261.02" cy="90.35" r="3.33"/>
    <circle cx="233.15" cy="121.33" r="3.33"/>
    <circle cx="290.58" cy="60.92" r="3.33"/>
    <circle cx="296.52" cy="55.08" r="3.33"/>
    <circle cx="256.75" cy="97.75" r="3.33"/>
    <circle cx="286.27" cy="68.31" r="3.33"/>
    <circle cx="252.47" cy="105.17" r="3.33"/>
    <circle cx="276.04" cy="81.60" r="3.33"/>
    <circle cx="281.93" cy="75.71" r="3.33"/>
    <circle cx="271.72" cy="89.06" r="3.33"/>
    <circle cx="248.16" cy="112.64" r="3.33"/>
    <circle cx="302.63" cy="61.06" r="3.33"/>
    <circle cx="296.78" cy="67.00" r="3.33"/>
    <circle cx="267.38" cy="96.54" r="3.33"/>
    <circle cx="292.39" cy="74.47" r="3.33"/>
    <circle cx="243.82" cy="120.14" r="3.33"/>
    <circle cx="263.01" cy="104.06" r="3.33"/>
    <circle cx="287.96" cy="81.96" r="3.33"/>
    <circle cx="282.18" cy="87.99" r="3.33"/>
    <circle cx="239.44" cy="127.71" r="3.33"/>
    <circle cx="308.42" cy="67.34" r="3.33"/>
    <circle cx="258.59" cy="111.64" r="3.33"/>
    <circle cx="302.65" cy="73.40" r="3.33"/>
    <circle cx="277.75" cy="95.56" r="3.33"/>
    <circle cx="298.15" cy="80.96" r="3.33"/>
    <circle cx="273.27" cy="103.18" r="3.33"/>
    <circle cx="254.13" cy="119.26" r="3.33"/>
    <circle cx="293.60" cy="88.56" r="3.33"/>
    <circle cx="313.90" cy="73.91" r="3.33"/>
    <circle cx="287.89" cy="94.76" r="3.33"/>
    <circle cx="308.17" cy="80.11" r="3.33"/>
    <circle cx="268.74" cy="110.86" r="3.33"/>
    <circle cx="249.60" cy="126.96" r="3.33"/>
    <circle cx="283.31" cy="102.47" r="3.33"/>
    <circle cx="303.54" cy="87.77" r="3.33"/>
    <circle cx="264.14" cy="118.60" r="3.33"/>
    <circle cx="319.04" cy="80.74" r="3.33"/>
    <circle cx="298.84" cy="95.48" r="3.33"/>
    <circle cx="278.66" cy="110.24" r="3.33"/>
    <circle cx="313.33" cy="87.10" r="3.33"/>
    <circle cx="244.97" cy="134.76" r="3.33"/>
    <circle cx="293.16" cy="101.89" r="3.33"/>
    <circle cx="259.45" cy="126.42" r="3.33"/>
    <circle cx="308.53" cy="94.87" r="3.33"/>
    <circle cx="273.92" cy="118.08" r="3.33"/>
    <circle cx="288.39" cy="109.74" r="3.33"/>
    <circle cx="323.83" cy="87.82" r="3.33"/>
    <circle cx="303.66" cy="102.70" r="3.33"/>
    <circle cx="318.10" cy="94.36" r="3.33"/>
    <circle cx="254.64" cy="134.34" r="3.33"/>
    <circle cx="269.08" cy="126.00" r="3.33"/>
    <circle cx="283.52" cy="117.67" r="3.33"/>
    <circle cx="297.95" cy="109.33" r="3.33"/>
    <circle cx="313.12" cy="102.25" r="3.33"/>
    <circle cx="328.26" cy="95.13" r="3.33"/>
    <circle cx="292.95" cy="117.34" r="3.33"/>
    <circle cx="278.52" cy="125.69" r="3.33"/>
    <circle cx="322.48" cy="101.86" r="3.33"/>
    <circle cx="264.09" cy="134.04" r="3.33"/>
    <circle cx="308.04" cy="110.19" r="3.33"/>
    <circle cx="249.66" cy="142.39" r="3.33"/>
    <circle cx="302.26" cy="117.08" r="3.33"/>
    <circle cx="317.29" cy="109.87" r="3.33"/>
    <circle cx="332.32" cy="102.65" r="3.33"/>
    <circle cx="287.81" cy="125.44" r="3.33"/>
    <circle cx="273.36" cy="133.81" r="3.33"/>
    <circle cx="326.45" cy="109.59" r="3.33"/>
    <circle cx="258.91" cy="142.19" r="3.33"/>
    <circle cx="311.97" cy="117.94" r="3.33"/>
    <circle cx="296.98" cy="125.24" r="3.33"/>
    <circle cx="282.50" cy="133.63" r="3.33"/>
    <circle cx="336.00" cy="110.37" r="3.33"/>
    <circle cx="321.02" cy="117.71" r="3.33"/>
    <circle cx="306.06" cy="125.08" r="3.33"/>
    <circle cx="268.00" cy="142.05" r="3.33"/>
    <circle cx="291.53" cy="133.50" r="3.33"/>
    <circle cx="330.00" cy="117.51" r="3.33"/>
    <circle cx="253.47" cy="150.50" r="3.33"/>
    <circle cx="315.43" cy="125.90" r="3.33"/>
    <circle cx="276.97" cy="141.95" r="3.33"/>
    <circle cx="339.28" cy="118.26" r="3.33"/>
    <circle cx="300.47" cy="133.40" r="3.33"/>
    <circle cx="324.30" cy="125.75" r="3.33"/>
    <circle cx="309.33" cy="133.31" r="3.33"/>
    <circle cx="285.84" cy="141.87" r="3.33"/>
    <circle cx="262.36" cy="150.44" r="3.33"/>
    <circle cx="333.13" cy="125.62" r="3.33"/>
    <circle cx="294.64" cy="141.81" r="3.33"/>
    <circle cx="318.41" cy="134.05" r="3.33"/>
    <circle cx="342.17" cy="126.30" r="3.33"/>
    <circle cx="271.15" cy="150.40" r="3.33"/>
    <circle cx="327.13" cy="133.96" r="3.33"/>
  </g>
  <g style="fill:#8A3465; stroke:none" id="Party4">
    <circle cx="303.38" cy="141.77" r="3.33"/>
    <circle cx="279.86" cy="150.37" r="3.33"/>
    <circle cx="335.82" cy="133.88" r="3.33"/>
    <circle cx="312.07" cy="141.74" r="3.33"/>
    <circle cx="344.66" cy="134.48" r="3.33"/>
    <circle cx="256.33" cy="158.99" r="3.33"/>
    <circle cx="288.52" cy="150.35" r="3.33"/>
    <circle cx="320.89" cy="142.37" r="3.33"/>
    <circle cx="297.14" cy="150.33" r="3.33"/>
    <circle cx="329.49" cy="142.31" r="3.33"/>
    <circle cx="264.94" cy="158.99" r="3.33"/>
    <circle cx="338.06" cy="142.27" r="3.33"/>
    <circle cx="305.71" cy="150.33" r="3.33"/>
    <circle cx="273.50" cy="159.00" r="3.33"/>
    <circle cx="346.73" cy="142.77" r="3.33"/>
    <circle cx="314.26" cy="150.32" r="3.33"/>
    <circle cx="282.03" cy="159.00" r="3.33"/>
    <circle cx="322.88" cy="150.82" r="3.33"/>
    <circle cx="331.37" cy="150.79" r="3.33"/>
    <circle cx="290.52" cy="159.01" r="3.33"/>
    <circle cx="339.85" cy="150.77" r="3.33"/>
    <circle cx="299.00" cy="159.01" r="3.33"/>
    <circle cx="348.38" cy="151.16" r="3.33"/>
    <circle cx="307.45" cy="159.02" r="3.33"/>
    <circle cx="258.21" cy="167.75" r="3.33"/>
    <circle cx="315.89" cy="159.03" r="3.33"/>
    <circle cx="324.37" cy="159.37" r="3.33"/>
    <circle cx="266.64" cy="167.77" r="3.33"/>
    <circle cx="332.78" cy="159.36" r="3.33"/>
    <circle cx="275.05" cy="167.78" r="3.33"/>
    <circle cx="341.18" cy="159.35" r="3.33"/>
    <circle cx="349.61" cy="159.62" r="3.33"/>
    <circle cx="283.45" cy="167.79" r="3.33"/>
    <circle cx="291.84" cy="167.80" r="3.33"/>
    <circle cx="300.22" cy="167.81" r="3.33"/>
    <circle cx="308.59" cy="167.82" r="3.33"/>
    <circle cx="316.96" cy="167.82" r="3.33"/>
    <circle cx="325.34" cy="168.00" r="3.33"/>
    <circle cx="333.70" cy="167.99" r="3.33"/>
    <circle cx="342.06" cy="167.99" r="3.33"/>
    <circle cx="350.42" cy="168.13" r="3.33"/>
    <circle cx="259.10" cy="176.67" r="3.33"/>
    <circle cx="267.44" cy="176.67" r="3.33"/>
    <circle cx="275.78" cy="176.67" r="3.33"/>
    <circle cx="284.11" cy="176.67" r="3.33"/>
    <circle cx="292.45" cy="176.67" r="3.33"/>
    <circle cx="300.79" cy="176.67" r="3.33"/>
    <circle cx="309.12" cy="176.67" r="3.33"/>
    <circle cx="317.46" cy="176.67" r="3.33"/>
  </g>
  <g style="fill:#CCCCCC; stroke:none" id="Party5">
    <circle cx="325.80" cy="176.67" r="3.33"/>
    <circle cx="334.13" cy="176.67" r="3.33"/>
    <circle cx="342.47" cy="176.67" r="3.33"/>
    <circle cx="350.80" cy="176.67" r="3.33"/>
  </g>
</g>
</svg>
